<svg xmlns="http://www.w3.org/2000/svg" xmlns:xlink="http://www.w3.org/1999/xlink" viewBox="0 0 753.25 366.6"><defs><style>.cls-1{fill:#fff;}.cls-2{fill:#05057d;}.cls-3{fill:#07089e;}.cls-4{fill:url(#linear-gradient);}.cls-5{fill:#0a0ac2;}.cls-6{fill:#0707a5;}.cls-7{fill:#3329ff;}.cls-8{fill:#0808b6;}.cls-9{fill:url(#linear-gradient-2);}.cls-10{fill:#04057b;}</style><linearGradient id="linear-gradient" x1="90.88" y1="249.72" x2="90.88" y2="50.38" gradientUnits="userSpaceOnUse"><stop offset="0" stop-color="#0709b3"/><stop offset="1" stop-color="#030663"/></linearGradient><linearGradient id="linear-gradient-2" x1="8.15" y1="366.6" x2="8.15" y2="99.16" gradientUnits="userSpaceOnUse"><stop offset="0" stop-color="#0a0aca"/><stop offset="1" stop-color="#030663"/></linearGradient></defs><title>logo</title><g id="Capa_2" data-name="Capa 2"><g id="Layer_2" data-name="Layer 2"><path class="cls-1" d="M207.87,208.48V171.13c0-9.2-4.81-17.55-14.29-17.55s-14.86,8.35-14.86,17.55v37.36H161.46V138.58h16l1.27,8.49c3.68-7.08,11.75-9.62,18.4-9.62,8.35,0,16.7,3.4,20.66,13,6.23-9.91,14.29-12.74,23.35-12.74,19.81,0,29.58,12.17,29.58,33.11v37.64H253.44V170.84c0-9.2-3.82-17-13.16-17s-15.14,8.07-15.14,17.26v37.36Z"/><path class="cls-1" d="M307.07,119c0,13.44-20.38,13.44-20.38,0S307.07,105.61,307.07,119Zm-18.82,19.39v70h17.26v-70Z"/><path class="cls-1" d="M345.42,119v19.81h19.25v14.86H345.28v30.14c0,6.65,3.68,9.91,9.06,9.91a19.73,19.73,0,0,0,8.35-2.12l4.81,14.72a38.54,38.54,0,0,1-14.29,3c-15.14.57-25-8.07-25-25.47V153.72h-13V138.86h13v-18Z"/><path class="cls-1" d="M393.53,138.72l1.27,8.07c5.38-8.63,12.59-9.91,19.67-9.91s14.15,2.83,18,6.65l-7.78,15A17.25,17.25,0,0,0,412.21,154c-9.06,0-17.41,4.81-17.41,17.69v36.79H377.54V138.72Z"/><path class="cls-1" d="M457.78,119c0,13.44-20.38,13.44-20.38,0S457.78,105.61,457.78,119ZM439,138.44v70h17.26v-70Z"/><path class="cls-1" d="M491.74,199.57c0,13.44-20.38,13.44-20.38,0S491.74,186.13,491.74,199.57Z"/><path class="cls-1" d="M581.88,109.57v98.92H565.75l-1.13-9.62c-5.38,8.35-14,11.18-22.5,11.18-20.52,0-35.94-13.58-35.94-36.51,0-24.06,15.14-36.51,35.52-36.51,7.36,0,18.82,4,22.92,11.18V109.57Zm-58.44,64c0,12.17,8.77,20.52,19.81,20.52s20.24-7.92,20.24-20.52a19.91,19.91,0,0,0-20.24-20.38C532.21,153.15,523.44,160.94,523.44,173.53Z"/><path class="cls-1" d="M669.19,138.58l-29.72,70.19H620.8l-29.86-70.19h18.82l9.62,23.07,10.75,29.43,10.61-29.15,9.62-23.35Z"/><path class="cls-1" d="M677.54,237.64V138.72h16.13l1.13,9.62c5.38-7.78,14.72-11.18,22.64-11.18,21.51,0,35.8,16,35.8,36.51S740.37,210.18,718,210.18c-7.36,0-18.25-2.26-23.21-9.91v37.36Zm58.44-64c0-10.9-7.36-19.81-19.81-19.81s-19.81,8.92-19.81,19.81,8.07,19.81,19.81,19.81S736,184.57,736,173.67Z"/><polygon class="cls-2" points="50.19 28.37 66.72 39.68 120.98 11.31 104.44 0 50.19 28.37"/><polygon class="cls-3" points="66.72 68.03 50.19 56.71 50.19 28.37 66.72 39.68 66.72 68.03"/><polygon class="cls-4" points="82.66 238.41 99.19 249.72 99.19 50.38 82.56 59.45 82.66 238.41"/><polygon class="cls-5" points="50.19 256.08 66.72 267.4 66.72 295.62 50.19 284.31 50.19 256.08"/><polygon class="cls-6" points="82.66 238.41 50.19 256.08 66.72 267.4 99.19 249.72 82.66 238.41"/><polygon class="cls-7" points="99.19 50.38 99.19 249.72 66.72 267.4 66.72 295.62 120.98 267.28 120.98 11.31 66.72 39.68 66.72 68.03 99.19 50.38"/><polygon class="cls-7" points="38.09 327.54 38.09 128.2 70.56 110.52 70.56 82.3 16.3 110.63 16.3 366.6 70.56 338.23 70.56 309.89 38.09 327.54"/><polygon class="cls-8" points="70.56 309.89 54.26 298.42 38.13 307.17 38.09 327.54 70.56 309.89"/><polygon class="cls-9" points="16.3 366.6 0 355.13 0 99.16 16.3 110.63 16.3 366.6"/><polygon class="cls-10" points="70.56 82.3 54.26 70.82 0 99.16 16.3 110.63 70.56 82.3"/></g></g></svg>